<?xml version="1.0" encoding="UTF-8" standalone="no"?>
<!DOCTYPE svg PUBLIC "-//W3C//DTD SVG 1.1//EN" "http://www.w3.org/Graphics/SVG/1.1/DTD/svg11.dtd">
<svg width="100%" height="100%" viewBox="0 0 256 256" version="1.1" xmlns="http://www.w3.org/2000/svg" xmlns:xlink="http://www.w3.org/1999/xlink" xml:space="preserve" xmlns:serif="http://www.serif.com/" style="fill-rule:evenodd;clip-rule:evenodd;stroke-linecap:round;">
    <g transform="matrix(1,0,0,1,-189.696,0)">
        <g id="icon" transform="matrix(0.0666667,0,0,0.118519,189.696,0)">
            <rect x="0" y="0" width="3840" height="2160" style="fill:none;"/>
            <clipPath id="_clip1">
                <rect x="0" y="0" width="3840" height="2160"/>
            </clipPath>
            <g clip-path="url(#_clip1)">
                <g transform="matrix(15,0,0,8.57143,-2872.5,-17.1429)">
                    <rect x="189" y="2" width="261" height="252"/>
                </g>
                <g transform="matrix(2.21115,0,0,1.24377,3278.55,265.568)">
                    <g transform="matrix(1,0,0,1,-128,-127.5)">
                        <clipPath id="_clip2">
                            <rect x="0" y="0" width="256" height="255"/>
                        </clipPath>
                        <g clip-path="url(#_clip2)">
                            <g>
                                <path d="M18.124,127.5C18.124,170.796 43.285,208.211 79.77,225.942L27.594,82.986C21.525,96.589 18.124,111.643 18.124,127.5ZM201.345,121.981C201.345,108.463 196.489,99.101 192.325,91.815C186.78,82.805 181.583,75.175 181.583,66.165C181.583,56.11 189.209,46.75 199.951,46.75C200.436,46.75 200.895,46.811 201.368,46.838C181.908,29.009 155.981,18.124 127.505,18.124C89.292,18.124 55.673,37.73 36.115,67.426C38.681,67.503 41.099,67.557 43.154,67.557C54.595,67.557 72.304,66.169 72.304,66.169C78.201,65.821 78.896,74.481 73.006,75.179C73.006,75.179 67.08,75.876 60.487,76.221L100.319,194.699L124.256,122.909L107.214,76.217C101.324,75.872 95.744,75.175 95.744,75.175C89.85,74.829 90.541,65.817 96.435,66.165C96.435,66.165 114.499,67.553 125.246,67.553C136.685,67.553 154.397,66.165 154.397,66.165C160.298,65.817 160.991,74.477 155.099,75.175C155.099,75.175 149.161,75.872 142.58,76.217L182.108,193.798L193.018,157.34C197.746,142.211 201.345,131.345 201.345,121.981ZM129.424,137.068L96.606,232.431C106.404,235.312 116.767,236.887 127.505,236.887C140.242,236.887 152.457,234.685 163.828,230.687C163.534,230.219 163.268,229.721 163.049,229.18L129.424,137.068ZM223.482,75.023C223.952,78.507 224.219,82.247 224.219,86.27C224.219,97.369 222.146,109.847 215.902,125.448L182.491,222.048C215.009,203.085 236.881,167.855 236.881,127.503C236.883,108.486 232.025,90.603 223.482,75.023ZM127.505,0C57.2,0 0,57.196 0,127.5C0,197.813 57.2,255.007 127.505,255.007C197.807,255.007 255.016,197.813 255.016,127.5C255.013,57.196 197.807,0 127.505,0ZM127.505,249.163C60.424,249.163 5.846,194.585 5.846,127.5C5.846,60.42 60.422,5.846 127.505,5.846C194.583,5.846 249.157,60.42 249.157,127.5C249.157,194.585 194.583,249.163 127.505,249.163Z" style="fill:rgb(70,67,66);fill-rule:nonzero;"/>
                            </g>
                        </g>
                    </g>
                </g>
                <g transform="matrix(1,0,0,1,0,-122.311)">
                    <g transform="matrix(1,0,0,1,-62.6922,-306.129)">
                        <g transform="matrix(9.54807,-3.10083,5.51258,5.37079,-63889.4,-2224.62)">
                            <path d="M4891.13,3531.8L4979.47,3480.8L4979.47,3531.8L4891.13,3582.8C4891.13,3582.8 4802.8,3531.8 4802.8,3531.8L4802.8,3480.8L4891.13,3531.8Z" style="fill:none;stroke:white;stroke-width:2.04px;"/>
                        </g>
                        <g transform="matrix(11.0252,0,0,6.20166,-65489,-23679.5)">
                            <path d="M6194.75,3978.92L6143.75,4067.26L6041.75,4067.26L6016.25,4023.09L6118.25,4023.09C6118.25,4023.09 6169.25,3934.76 6169.25,3934.76L6194.75,3978.92ZM6118.25,4023.09L6016.25,4023.09L6067.25,3934.76L6169.25,3934.76L6118.25,4023.09Z" style="fill:none;stroke:rgb(235,39,42);stroke-width:2.04px;stroke-linejoin:round;"/>
                        </g>
                    </g>
                    <g transform="matrix(1,0,0,1,-120,0)">
                        <g transform="matrix(603.623,0,0,339.538,1972.11,1985.51)">
                            <path d="M0.376,-0.065C0.423,-0.065 0.465,-0.077 0.501,-0.101C0.536,-0.125 0.563,-0.157 0.58,-0.198L0.659,-0.198C0.637,-0.135 0.601,-0.086 0.55,-0.05C0.496,-0.011 0.432,0.008 0.359,0.008C0.262,0.008 0.184,-0.025 0.124,-0.091C0.067,-0.154 0.039,-0.234 0.039,-0.331C0.039,-0.428 0.067,-0.508 0.124,-0.571C0.184,-0.637 0.262,-0.67 0.359,-0.67C0.432,-0.67 0.496,-0.651 0.55,-0.612C0.601,-0.576 0.637,-0.527 0.659,-0.464L0.58,-0.464C0.563,-0.505 0.536,-0.537 0.501,-0.561C0.465,-0.585 0.423,-0.597 0.376,-0.597C0.329,-0.597 0.289,-0.59 0.258,-0.577C0.227,-0.563 0.2,-0.544 0.179,-0.52C0.136,-0.471 0.114,-0.408 0.114,-0.331C0.114,-0.254 0.136,-0.191 0.179,-0.142C0.224,-0.091 0.29,-0.065 0.376,-0.065Z" style="fill:white;fill-rule:nonzero;"/>
                        </g>
                        <g transform="matrix(603.623,0,0,339.538,2428.8,1985.51)">
                            <path d="M0.375,-0.67C0.474,-0.67 0.555,-0.637 0.618,-0.571C0.68,-0.507 0.711,-0.427 0.711,-0.331C0.711,-0.235 0.68,-0.155 0.618,-0.091C0.555,-0.025 0.474,0.008 0.375,0.008C0.276,0.008 0.195,-0.025 0.132,-0.091C0.07,-0.155 0.039,-0.235 0.039,-0.331C0.039,-0.427 0.07,-0.507 0.132,-0.571C0.195,-0.637 0.276,-0.67 0.375,-0.67ZM0.375,-0.065C0.454,-0.065 0.517,-0.091 0.566,-0.142C0.613,-0.191 0.636,-0.254 0.636,-0.331C0.636,-0.408 0.613,-0.471 0.566,-0.52C0.517,-0.571 0.454,-0.597 0.375,-0.597C0.296,-0.597 0.233,-0.571 0.184,-0.52C0.137,-0.471 0.114,-0.408 0.114,-0.331C0.114,-0.254 0.137,-0.191 0.184,-0.142C0.233,-0.091 0.296,-0.065 0.375,-0.065Z" style="fill:white;fill-rule:nonzero;"/>
                        </g>
                        <g transform="matrix(538.661,0,0,302.997,712.259,1988.23)">
                            <path d="M0.187,-0.528L0.191,-0.469C0.228,-0.515 0.279,-0.538 0.343,-0.538C0.411,-0.538 0.458,-0.511 0.483,-0.458C0.52,-0.511 0.573,-0.538 0.642,-0.538C0.699,-0.538 0.742,-0.521 0.77,-0.488C0.798,-0.455 0.812,-0.404 0.812,-0.337L0.812,-0L0.67,-0L0.67,-0.337C0.67,-0.367 0.664,-0.389 0.652,-0.403C0.641,-0.416 0.62,-0.423 0.59,-0.423C0.548,-0.423 0.519,-0.403 0.502,-0.363L0.503,-0L0.362,-0L0.362,-0.336C0.362,-0.367 0.356,-0.389 0.344,-0.403C0.332,-0.417 0.311,-0.423 0.282,-0.423C0.242,-0.423 0.213,-0.407 0.195,-0.374L0.195,-0L0.054,-0L0.054,-0.528L0.187,-0.528Z" style="fill:white;fill-rule:nonzero;"/>
                        </g>
                        <g transform="matrix(538.661,0,0,302.997,1170.24,1985.27)">
                            <path d="M0.371,-0.054C0.336,-0.011 0.288,0.01 0.226,0.01C0.169,0.01 0.126,-0.007 0.096,-0.039C0.067,-0.072 0.051,-0.119 0.051,-0.182L0.051,-0.528L0.192,-0.528L0.192,-0.187C0.192,-0.132 0.217,-0.104 0.267,-0.104C0.315,-0.104 0.348,-0.121 0.366,-0.154L0.366,-0.528L0.507,-0.528L0.507,-0L0.375,-0L0.371,-0.054Z" style="fill:white;fill-rule:nonzero;"/>
                        </g>
                        <g transform="matrix(538.661,0,0,302.997,1458.57,1988.23)">
                            <rect x="0.062" y="-0.75" width="0.142" height="0.75" style="fill:white;fill-rule:nonzero;"/>
                        </g>
                        <g transform="matrix(538.661,0,0,302.997,1613.56,1985.27)">
                            <path d="M0.223,-0.658L0.223,-0.528L0.313,-0.528L0.313,-0.425L0.223,-0.425L0.223,-0.161C0.223,-0.142 0.227,-0.128 0.234,-0.119C0.242,-0.111 0.256,-0.106 0.277,-0.106C0.293,-0.106 0.307,-0.108 0.319,-0.11L0.319,-0.003C0.291,0.006 0.263,0.01 0.233,0.01C0.134,0.01 0.084,-0.04 0.082,-0.14L0.082,-0.425L0.005,-0.425L0.005,-0.528L0.082,-0.528L0.082,-0.658L0.223,-0.658Z" style="fill:white;fill-rule:nonzero;"/>
                        </g>
                        <g transform="matrix(538.661,0,0,302.997,1804.84,1988.23)">
                            <path d="M0.203,-0L0.062,-0L0.062,-0.528L0.203,-0.528L0.203,-0ZM0.053,-0.665C0.053,-0.686 0.06,-0.704 0.074,-0.717C0.089,-0.731 0.108,-0.738 0.132,-0.738C0.156,-0.738 0.176,-0.731 0.19,-0.717C0.204,-0.704 0.211,-0.686 0.211,-0.665C0.211,-0.644 0.204,-0.626 0.19,-0.612C0.175,-0.599 0.156,-0.592 0.132,-0.592C0.109,-0.592 0.089,-0.599 0.075,-0.612C0.06,-0.626 0.053,-0.644 0.053,-0.665Z" style="fill:white;fill-rule:nonzero;"/>
                        </g>
                        <g transform="matrix(618.212,0,0,347.744,2890.34,1988.23)">
                            <path d="M0.725,-0.662L0.725,-0L0.65,-0L0.65,-0.548L0.405,-0.233L0.156,-0.548L0.156,-0L0.081,-0L0.081,-0.662L0.168,-0.662L0.405,-0.348L0.638,-0.662L0.725,-0.662Z" style="fill:white;fill-rule:nonzero;"/>
                        </g>
                    </g>
                </g>
            </g>
        </g>
    </g>
</svg>
